<svg width="648.189" height="270.087" viewBox="0 0 648.189 270.087" xmlns="http://www.w3.org/2000/svg"><g id="svgGroup" stroke-linecap="round" fill-rule="evenodd" font-size="9pt" stroke="#ffffff" stroke-width="0.25mm" fill="#ffffff" style="stroke:#ffffff;stroke-width:0.25mm;fill:#ffffff"><path d="M 169.041 60 L 125.4 60 L 86.847 159.855 L 45.135 60 L 0 60 L 67.593 209.724 L 44.286 270.087 L 81.678 270 L 169.041 60 Z M 526.173 0 L 484.179 0 L 484.179 76.299 C 470.538 63.406 454.533 56.762 439.666 55.897 A 57.276 57.276 0 0 0 436.341 55.8 A 64.38 64.38 0 0 0 436.088 55.8 C 397.241 55.8 370.83 90.995 370.83 135 A 95.862 95.862 0 0 0 380.065 177.041 A 61.618 61.618 0 0 0 435.63 214.2 C 451.863 214.2 469.137 207.936 484.182 193.701 L 484.182 210 L 526.176 210 L 526.173 0 Z M 607.989 0 L 565.995 0 L 565.995 163.881 C 565.995 199.894 587.574 214.185 612.795 214.185 A 66.791 66.791 0 0 0 612.906 214.185 A 73.157 73.157 0 0 0 628.244 212.461 C 634.94 211.013 641.693 208.692 648.189 205.641 L 638.04 178.104 C 634.294 179.299 630.816 179.982 627.671 180.083 A 25.29 25.29 0 0 1 626.994 180.096 A 30.501 30.501 0 0 1 626.827 180.096 C 616.968 180.096 609.522 175.291 608.199 162.748 A 40.055 40.055 0 0 1 607.989 158.55 L 607.989 0 Z M 180.633 134.301 A 91.552 91.552 0 0 0 180.63 135 C 180.63 178.8 212.433 214.2 260.625 214.2 A 84.328 84.328 0 0 0 300.46 204.767 A 77.095 77.095 0 0 0 340.62 135 A 76.356 76.356 0 0 0 284.056 58.8 A 89.939 89.939 0 0 0 260.625 55.8 C 212.688 55.502 180.967 90.527 180.633 134.301 Z M 484.182 109.275 L 484.182 160.731 C 472.333 172.64 456.931 178.681 445.15 178.725 A 34.734 34.734 0 0 1 445.083 178.725 L 445.08 178.725 C 424.874 178.704 413.437 161.293 413.437 135.515 A 87.639 87.639 0 0 1 413.439 135 C 413.355 120.678 416.735 108.899 423.12 101.189 A 26.918 26.918 0 0 1 444.627 91.275 A 45.508 45.508 0 0 1 455.006 92.553 C 464.929 94.906 475.415 100.497 484.182 109.275 Z M 298.05 135.003 A 57.444 57.444 0 0 0 295.633 117.992 C 290.649 101.923 278.207 91.782 260.625 91.782 A 44.918 44.918 0 0 0 258.638 91.826 C 236.593 92.802 223.197 110.073 223.197 134.366 A 66.477 66.477 0 0 0 223.2 135.003 C 223.2 160.356 237.687 178.224 260.625 178.224 A 44.172 44.172 0 0 0 263.349 178.141 C 284.914 176.809 298.05 159.578 298.05 135.003 Z" vector-effect="non-scaling-stroke"/></g></svg>